<?xml version="1.0" encoding="UTF-8"?>
<svg width="193px" height="30px" viewBox="0 0 193 30" version="1.1" xmlns="http://www.w3.org/2000/svg" xmlns:xlink="http://www.w3.org/1999/xlink">
    <!-- Generator: Sketch 42 (36781) - http://www.bohemiancoding.com/sketch -->
    <title>Group 7</title>
    <desc>Created with Sketch.</desc>
    <defs>
        <polygon id="path-1" points="32.6675827 0.35557377 0 0.35557377 0 14.6880984 0 29.020623 32.6675827 29.020623 32.6675827 0.35557377"></polygon>
    </defs>
    <g id="menu" stroke="none" stroke-width="1" fill="none" fill-rule="evenodd">
        <g id="MENU" transform="translate(-55.000000, -23.000000)">
            <g id="Group-17" transform="translate(-65.000000, -1.000000)">
                <g id="Group-12">
                    <g id="Group-13">
                        <g id="Group-11">
                            <g id="Group-7" transform="translate(120.000000, 24.000000)">
                                <path d="M170.213154,21.9572459 L176.968154,21.9375738 C177.643409,21.9375738 178.285269,22.2503607 178.651625,22.9315082 C179.423134,24.3631475 180.269289,24.8323279 182.07848,24.8323279 C183.386755,24.8323279 185.319701,24.3060984 185.319701,22.6747869 C185.319701,20.776918 182.170806,20.5433115 180.896416,20.3008525 C178.062803,19.7633115 176.092042,19.2779016 174.991009,18.819541 C173.889485,18.3641311 172.957879,17.5964262 172.206996,16.5218361 C171.446292,15.4462623 171.071096,14.2157705 171.071096,12.8303607 C171.071096,7.02363934 176.671042,5.66232787 181.415012,5.66232787 C186.68347,5.66232787 190.500253,7.29659016 192.415029,12.5967541 L185.3418,12.6174098 C184.700923,12.6174098 184.107681,11.952 183.93678,11.684459 C183.330279,10.7264262 182.293579,10.3029836 181.012314,10.3029836 C179.853332,10.3029836 178.37121,10.6787213 178.37121,12.1152787 C178.37121,13.8847869 181.504882,14.0190492 182.660426,14.172 C185.368811,14.502 187.387699,14.959377 188.70776,15.5490492 C190.033714,16.1382295 191.047332,16.9777377 191.744686,18.0749508 C192.449897,19.1667541 192.797101,20.3682295 192.797101,21.6788852 C192.797101,23.0047869 192.425833,24.2938033 191.684281,25.546918 C189.657045,28.9733115 185.934551,29.6431475 182.325991,29.6431475 C176.489828,29.6431475 171.807246,28.5316721 170.213154,22.6910164 L170.213154,24.2283934 C170.213154,25.304459 170.27847,26.1528197 170.405663,26.7641311 C170.531874,27.3739672 171.009709,28.154459 171.776307,29.1056066 L163.785714,29.1056066 C163.477307,28.5159344 163.277923,28.0679016 163.183632,27.757082 C163.086887,27.4487213 162.998981,26.9613443 162.901744,26.2988852 C161.836561,27.4113443 160.76794,28.1992131 159.714543,28.6708525 C158.272691,29.3062623 156.594131,29.6210164 154.687213,29.6210164 C150.586576,29.6210164 147.532953,27.5436393 147.532953,23.0411803 C147.532953,18.7142951 149.719795,15.976918 153.666228,15.5706885 C156.799409,15.2490492 159.494042,15.4216721 160.293052,14.917082 C161.02822,14.4523279 161.891073,13.6138033 161.888617,12.5701967 C161.888617,11.4316721 161.08175,10.8287213 159.634495,10.8838033 C158.614984,10.9251148 157.840528,11.1941311 157.267421,11.7415082 C156.352513,12.6174098 155.276035,13.1839672 154.368001,13.1318361 L148.778859,13.1224918 C149.764976,7.80363934 154.478007,5.66232787 159.911963,5.66232787 C165.010012,5.66232787 170.213154,8.28265574 170.213154,14.1041311 L170.213154,21.9572459 Z M160.994335,19.3187213 C160.091213,19.6787213 159.152241,19.9983934 158.18233,20.2747869 C156.913342,20.649541 155.103169,21.1511803 155.103169,22.7883934 C155.103169,24.0783934 156.001381,24.7457705 157.230098,24.7457705 C158.586009,24.7457705 160.017057,23.9618361 160.603424,22.7097049 C160.86665,22.1397049 160.994335,21.3975738 160.994335,20.4906885 L160.994335,19.3187213 Z" id="Fill-1" fill="#0057A8"></path>
                                <path d="M133.97792,19.6093279 L133.97792,16.4170328 C133.97792,14.671623 135.120696,13.1617869 138.160569,13.1617869 L148.350772,13.1617869 L148.350772,18.961623 C145.632075,25.7632623 139.711444,29.6445738 133.885103,29.6445738 C123.746955,29.6445738 118.499123,20.9499836 118.499123,14.8280164 C118.499123,8.13162295 123.305953,0.562770492 133.499103,0.562770492 C140.543849,0.562770492 145.848647,4.08703279 147.746235,10.689 L138.988553,10.689 C138.243072,8.46309836 136.254632,6.29818033 133.718131,6.29818033 C129.612584,6.29818033 128.013581,10.7903115 128.013581,14.7267049 C128.013581,18.961623 129.676426,23.9858852 133.97792,24.0670328 C136.770772,24.1221148 138.653627,21.8081803 139.13981,19.6093279 L133.97792,19.6093279 Z" id="Fill-3" fill="#EF3D42"></path>
                                <path d="M110.393516,6.18442623 L118.748501,6.18442623 L118.748501,29.1054098 L116.215928,29.1054098 C112.923633,29.1054098 110.393516,27.6063934 110.393516,25.2831148 L110.393516,6.18442623 Z M31.5478597,6.18442623 L39.3847401,6.18442623 L39.3847401,9.52868852 C40.5176943,8.12901639 41.6511396,7.14196721 42.7983355,6.54590164 C43.9465136,5.9552459 45.3328724,5.66213115 46.9593762,5.66213115 C48.7066892,5.66213115 50.0856816,5.9857377 51.0992999,6.63344262 C52.1202846,7.28213115 52.9502337,8.24852459 53.5979869,9.52868852 C54.9146103,8.03508197 56.117791,7.01016393 57.2104755,6.47016393 C58.2943203,5.93508197 59.6315696,5.66213115 61.2300811,5.66213115 C63.5819309,5.66213115 65.418132,6.3904918 66.7362287,7.85704918 C68.0597274,9.3157377 68.7143559,11.5986885 68.7143559,14.7088525 L68.7143559,16.1434426 C69.3390276,9.72639344 73.8953991,5.66213115 80.6670963,5.66213115 C87.0974831,5.66213115 91.0944984,8.28786885 92.6046129,13.2791803 L92.6046129,6.18442623 L100.240636,6.18442623 L100.240636,11.0031148 C101.118221,7.67508197 102.870936,6.05016393 105.701603,6.05016393 C106.906748,6.05016393 107.735715,5.9695082 108.872598,6.09147541 L108.872598,12.2572131 C107.638969,16.3529508 100.799501,13.2821311 100.799501,17.2411475 L100.799501,29.1054098 L98.2222388,29.1054098 C94.9977147,29.1054098 92.6046129,27.184918 92.6046129,24.8277049 L92.6046129,22.0460656 C90.257674,26.6690164 86.0917223,29.6213115 80.9057681,29.6213115 C73.9322312,29.6213115 69.3400098,26.0459016 68.7143559,19.312623 L68.7143559,29.1054098 L66.1940607,29.1054098 C62.7171142,29.1054098 60.3009309,27.1106557 60.3009309,24.6993443 L60.3009309,15.272459 C60.3009309,13.6814754 59.5888444,11.7727869 57.6185747,11.7727869 C54.8964399,11.7727869 54.3238241,14.3759016 54.3238241,16.5029508 L54.3238241,29.1054098 L51.7971447,29.1054098 C47.6803024,29.1054098 45.9035238,26.9567213 45.9035238,24.5040984 L45.9035238,15.6988525 C45.9035238,13.9445902 45.6078851,11.7280328 43.2634017,11.7280328 C40.5103279,11.7280328 39.9612846,14.5204918 39.9612846,16.6298361 L39.9612846,29.1054098 L31.5478597,29.1054098 L31.5478597,6.18442623 Z M89.5023712,19.4336066 L76.9382185,19.4336066 C77.1832745,21.8454098 78.7110684,23.8814754 81.4719997,23.8814754 C83.7158088,23.8814754 84.9209538,22.587541 85.3732516,20.9129508 L92.6046129,20.9301639 L92.6046129,17.1811475 C92.0207019,18.3472131 90.9172134,19.4336066 89.5023712,19.4336066 L89.5023712,19.4336066 Z M84.0163584,12.1632787 C83.6892897,11.2062295 82.131048,10.8629508 81.0088979,10.8629508 C79.7079895,10.8629508 78.6771829,11.4236066 77.8963432,12.5286885 C77.4057401,13.2216393 76.7962923,14.9247541 76.6661523,16.2939344 C79.0469767,14.0601639 85.2583355,15.8109836 84.0163584,12.1632787 L84.0163584,12.1632787 Z" id="Fill-5" fill="#0057A8"></path>
                                <g id="Group-9" transform="translate(0.226562, 0.136377)">
                                    <mask id="mask-2" fill="white">
                                        <use xlink:href="#path-1"></use>
                                    </mask>
                                    <g id="Clip-8"></g>
                                    <path d="M21.626313,24.288 L10.8939415,24.288 L9.47075064,29.020623 L0,29.020623 L11.4302163,0.355377049 L21.1347277,0.355377049 L32.6675827,29.020623 L23.3608575,29.020623 L21.626313,24.288 Z M18.8496667,17.1170164 L16.1835165,7.97685246 L12.4678982,19.255377 C14.3379847,17.6343934 16.4639313,16.9222623 18.8496667,17.1170164 L18.8496667,17.1170164 Z" id="Fill-7" fill="#EF3D42" mask="url(#mask-2)"></path>
                                </g>
                            </g>
                        </g>
                    </g>
                </g>
            </g>
        </g>
    </g>
</svg>